<?xml version="1.0" encoding="UTF-8"?>
<svg xmlns="http://www.w3.org/2000/svg" xmlns:xlink="http://www.w3.org/1999/xlink" width="150pt" height="150pt" viewBox="0 0 150 150" version="1.1">
<g id="surface1">
<path style=" stroke:none;fill-rule:nonzero;fill:rgb(0%,0%,0%);fill-opacity:1;" d="M 148.164062 113.382812 L 97.558594 69.527344 C 97.394531 69.382812 97.230469 69.234375 97.066406 69.089844 C 96.878906 69.316406 96.683594 69.53125 96.476562 69.742188 L 74.605469 91.609375 C 77.6875 95.820312 79.890625 100.535156 81.0625 105.476562 C 81.558594 107.558594 81.871094 109.671875 82.015625 111.789062 L 113.375 148.152344 C 115.394531 150.496094 118.976562 150.628906 121.164062 148.441406 L 148.441406 121.164062 C 150.625 118.980469 150.496094 115.40625 148.164062 113.382812 Z M 148.164062 113.382812 "/>
<path style=" stroke:none;fill-rule:nonzero;fill:rgb(0%,0%,0%);fill-opacity:1;" d="M 44.523438 68.933594 C 49.464844 70.109375 54.179688 72.3125 58.390625 75.394531 L 80.257812 53.523438 C 80.464844 53.316406 80.683594 53.121094 80.90625 52.933594 C 80.761719 52.769531 80.617188 52.605469 80.472656 52.441406 L 36.617188 1.835938 C 34.59375 -0.496094 31.019531 -0.625 28.835938 1.558594 L 1.558594 28.835938 C -0.628906 31.023438 -0.496094 34.605469 1.847656 36.625 L 38.210938 67.984375 C 40.339844 68.128906 42.453125 68.445312 44.523438 68.933594 Z M 44.523438 68.933594 "/>
<path style=" stroke:none;fill-rule:nonzero;fill:rgb(0%,0%,0%);fill-opacity:1;" d="M 74.675781 103.277344 C 73.089844 98.886719 70.535156 94.800781 67.167969 91.273438 L 92.585938 65.855469 C 92.730469 65.710938 92.855469 65.558594 92.96875 65.398438 C 93.953125 64.011719 93.832031 62.078125 92.585938 60.835938 L 89.164062 57.410156 C 88.46875 56.71875 87.5625 56.375 86.65625 56.375 C 85.933594 56.375 85.214844 56.59375 84.601562 57.03125 C 84.441406 57.144531 84.289062 57.269531 84.144531 57.414062 L 58.726562 82.832031 C 55.199219 79.464844 51.113281 76.910156 46.722656 75.324219 C 45.585938 74.914062 44.429688 74.5625 43.253906 74.285156 C 40.730469 73.6875 38.148438 73.390625 35.589844 73.390625 C 30.242188 73.390625 24.972656 74.679688 20.449219 77.175781 C 14.398438 80.511719 8.09375 87.242188 10.238281 95.222656 C 10.75 97.125 11.738281 98.820312 13.175781 100.257812 C 15.253906 102.332031 18.199219 103.757812 21.476562 104.277344 C 22.402344 104.425781 23.3125 104.488281 24.207031 104.488281 C 27.816406 104.488281 31.148438 103.429688 34.070312 102.386719 C 39.007812 100.625 43.949219 98.746094 48.789062 96.882812 C 47.824219 98.289062 46.78125 99.664062 45.6875 101.015625 C 44.5 102.480469 43.257812 103.921875 42.007812 105.339844 C 41.421875 106.003906 40.835938 106.664062 40.25 107.320312 L 39.480469 108.1875 C 33.507812 114.902344 27.425781 122.230469 24.390625 131.433594 C 22.96875 135.746094 22.449219 140.136719 22.84375 144.328125 C 23.042969 146.472656 25.121094 147.929688 27.214844 147.417969 L 29.480469 146.863281 C 31.164062 146.453125 32.3125 144.886719 32.175781 143.160156 C 31.953125 140.339844 32.339844 137.351562 33.320312 134.375 C 34.828125 129.796875 37.347656 125.699219 40.335938 121.78125 C 41.617188 120.105469 42.984375 118.464844 44.394531 116.832031 C 45.089844 116.03125 45.792969 115.230469 46.503906 114.429688 L 47.269531 113.570312 C 47.945312 112.8125 48.625 112.046875 49.304688 111.277344 C 48.730469 112.828125 48.164062 114.378906 47.613281 115.929688 C 46.3125 119.574219 44.984375 123.859375 45.722656 128.523438 C 46.238281 131.800781 47.667969 134.75 49.742188 136.824219 C 51.179688 138.261719 52.875 139.25 54.773438 139.761719 C 55.867188 140.054688 56.933594 140.191406 57.972656 140.191406 C 64.535156 140.191406 69.945312 134.777344 72.824219 129.550781 C 76.511719 122.863281 77.566406 114.550781 75.714844 106.746094 C 75.4375 105.570312 75.085938 104.414062 74.675781 103.277344 Z M 30.792969 93.199219 C 28.59375 93.984375 26.292969 94.730469 24.195312 94.730469 C 23.789062 94.730469 23.390625 94.703125 23 94.640625 C 21.796875 94.453125 20.675781 93.960938 20.074219 93.359375 C 19.785156 93.070312 19.699219 92.839844 19.660156 92.691406 C 19.023438 90.324219 22.492188 87.1875 25.160156 85.71875 C 28.242188 84.015625 31.859375 83.140625 35.558594 83.140625 C 37.371094 83.140625 39.203125 83.351562 41.003906 83.777344 C 43.441406 84.355469 45.792969 85.359375 47.976562 86.738281 C 42.339844 88.917969 36.535156 91.152344 30.792969 93.199219 Z M 64.285156 124.839844 C 62.933594 127.289062 60.175781 130.417969 57.902344 130.417969 C 57.699219 130.417969 57.503906 130.390625 57.308594 130.339844 C 57.160156 130.300781 56.929688 130.214844 56.640625 129.925781 C 56.039062 129.324219 55.546875 128.203125 55.359375 127 C 54.980469 124.601562 55.863281 121.835938 56.800781 119.207031 C 58.847656 113.464844 61.082031 107.660156 63.261719 102.023438 C 64.640625 104.207031 65.644531 106.5625 66.222656 108.996094 C 67.523438 114.472656 66.816406 120.246094 64.285156 124.839844 Z M 64.285156 124.839844 "/>
</g>
</svg>
